<svg width="24" height="24" viewBox="0 0 24 24" fill="currentColor" xmlns="http://www.w3.org/2000/svg">
  <path d="M12 2.04c-5.5 0-10 4.49-10 10.02 0 4.24 2.65 7.85 6.35 9.29-.09-.79-.16-2.02.03-2.89.18-.78 1.18-4.97 1.18-4.97s-.3-.6-.3-1.48c0-1.39.8-2.43 1.81-2.43.85 0 1.26.64 1.26 1.41 0 .86-.55 2.14-.83 3.33-.24 1 .5 1.81 1.49 1.81 1.78 0 3.15-1.88 3.15-4.58 0-2.4-1.72-4.08-4.18-4.08-2.85 0-4.52 2.14-4.52 4.35 0 .86.33 1.78.74 2.28.08.1.09.18.07.28l-.27 1.14c-.05.18-.15.22-.34.13-1.25-.58-2.03-2.41-2.03-3.88 0-3.16 2.29-6.07 6.61-6.07 3.47 0 6.17 2.47 6.17 5.78 0 3.45-2.18 6.23-5.2 6.23-1.02 0-1.97-.53-2.29-1.15l-.62 2.38c-.23.87-.84 1.96-1.25 2.62.94.29 1.94.45 2.98.45 5.5 0 10-4.49 10-10.02C22 6.53 17.5 2.04 12 2.04z"/>
</svg>
